<mxfile host="app.diagrams.net" modified="2021-11-22T20:07:14.328Z" agent="5.0 (Macintosh; Intel Mac OS X 10_15_7) AppleWebKit/537.36 (KHTML, like Gecko) Chrome/96.0.4664.45 Safari/537.36" etag="kEl-jWJewmmmiD0HDBc9" version="15.8.3" type="github">
  <diagram id="slHPIJKdi9Ptl_iNLTFW" name="Page-1">
    <mxGraphModel dx="1186" dy="696" grid="1" gridSize="10" guides="1" tooltips="1" connect="1" arrows="1" fold="1" page="1" pageScale="1" pageWidth="850" pageHeight="1100" math="0" shadow="0">
      <root>
        <mxCell id="0" />
        <mxCell id="1" parent="0" />
        <mxCell id="Lzy6enKNi-50VnEe-bel-1" value="Initialization&lt;br&gt;Phase" style="rounded=0;whiteSpace=wrap;html=1;fillColor=#ffe6cc;strokeColor=#d79b00;" vertex="1" parent="1">
          <mxGeometry x="20" y="20" width="140" height="60" as="geometry" />
        </mxCell>
        <mxCell id="Lzy6enKNi-50VnEe-bel-3" value="Pre&lt;br&gt;Target Read&lt;br&gt;Phase" style="rounded=0;whiteSpace=wrap;html=1;fillColor=#f5f5f5;fontColor=#333333;strokeColor=#666666;" vertex="1" parent="1">
          <mxGeometry x="200" y="20" width="140" height="60" as="geometry" />
        </mxCell>
        <mxCell id="Lzy6enKNi-50VnEe-bel-4" value="Read Target&lt;br&gt;Phase" style="rounded=0;whiteSpace=wrap;html=1;fillColor=#dae8fc;strokeColor=#6c8ebf;" vertex="1" parent="1">
          <mxGeometry x="380" y="20" width="140" height="60" as="geometry" />
        </mxCell>
        <mxCell id="Lzy6enKNi-50VnEe-bel-5" value="Pre Install&lt;br&gt;Phase" style="rounded=0;whiteSpace=wrap;html=1;fillColor=#e1d5e7;strokeColor=#9673a6;" vertex="1" parent="1">
          <mxGeometry x="560" y="20" width="140" height="60" as="geometry" />
        </mxCell>
        <mxCell id="Lzy6enKNi-50VnEe-bel-6" value="Install&lt;br&gt;Phase" style="rounded=0;whiteSpace=wrap;html=1;fillColor=#d5e8d4;strokeColor=#82b366;" vertex="1" parent="1">
          <mxGeometry x="740" y="20" width="140" height="60" as="geometry" />
        </mxCell>
        <mxCell id="Lzy6enKNi-50VnEe-bel-7" value="Post Install&lt;br&gt;Phase" style="rounded=0;whiteSpace=wrap;html=1;fillColor=#f9f7ed;strokeColor=#36393d;" vertex="1" parent="1">
          <mxGeometry x="920" y="20" width="140" height="60" as="geometry" />
        </mxCell>
        <mxCell id="Lzy6enKNi-50VnEe-bel-8" value="&lt;div style=&quot;font-size: 10px&quot;&gt;&lt;ul&gt;&lt;li&gt;&lt;span&gt;Validate Config&lt;/span&gt;&lt;/li&gt;&lt;li&gt;&lt;span&gt;Verify DB&lt;/span&gt;&lt;/li&gt;&lt;li&gt;&lt;span&gt;Init Event Tracking in DB&lt;/span&gt;&lt;/li&gt;&lt;li&gt;&lt;span&gt;Init Event&lt;/span&gt;&lt;/li&gt;&lt;li&gt;&lt;span&gt;Check Concurrency&lt;/span&gt;&lt;/li&gt;&lt;li&gt;&lt;span&gt;Mark Running&lt;/span&gt;&lt;/li&gt;&lt;li&gt;&lt;span&gt;Init Install Schema In DB&lt;/span&gt;&lt;/li&gt;&lt;/ul&gt;&lt;/div&gt;" style="text;html=1;strokeColor=none;fillColor=none;align=left;verticalAlign=middle;whiteSpace=wrap;rounded=0;" vertex="1" parent="1">
          <mxGeometry y="100" width="160" height="90" as="geometry" />
        </mxCell>
        <mxCell id="Lzy6enKNi-50VnEe-bel-10" value="&lt;div style=&quot;font-size: 10px&quot;&gt;&lt;ul&gt;&lt;li&gt;Check MD Mon for Concurrenccy&lt;/li&gt;&lt;li&gt;CCL&lt;/li&gt;&lt;/ul&gt;&lt;/div&gt;" style="text;html=1;strokeColor=none;fillColor=none;align=left;verticalAlign=middle;whiteSpace=wrap;rounded=0;" vertex="1" parent="1">
          <mxGeometry x="180" y="100" width="160" height="40" as="geometry" />
        </mxCell>
        <mxCell id="Lzy6enKNi-50VnEe-bel-13" value="&lt;div style=&quot;font-size: 10px&quot;&gt;&lt;div style=&quot;text-align: center&quot;&gt;&lt;span&gt;Read:&lt;/span&gt;&lt;/div&gt;&lt;ul&gt;&lt;li&gt;Target Schema Metadata&lt;/li&gt;&lt;li&gt;Target Table&lt;/li&gt;&lt;li&gt;Target Metadata&lt;/li&gt;&lt;li&gt;Target Table Relations&lt;/li&gt;&lt;/ul&gt;&lt;/div&gt;" style="text;html=1;strokeColor=none;fillColor=none;align=left;verticalAlign=middle;whiteSpace=wrap;rounded=0;" vertex="1" parent="1">
          <mxGeometry x="360" y="100" width="160" height="80" as="geometry" />
        </mxCell>
        <mxCell id="Lzy6enKNi-50VnEe-bel-14" value="&lt;div&gt;&lt;ul&gt;&lt;li style=&quot;font-size: 10px&quot;&gt;Target Table Validation&lt;/li&gt;&lt;li style=&quot;font-size: 10px&quot;&gt;Upate Millennium Metadata&lt;/li&gt;&lt;li style=&quot;font-size: 10px&quot;&gt;Schema Evaluation&lt;/li&gt;&lt;ul style=&quot;font-size: 10px&quot;&gt;&lt;li&gt;Analyze&lt;/li&gt;&lt;li&gt;Persist&lt;/li&gt;&lt;/ul&gt;&lt;li&gt;&lt;span style=&quot;font-size: 10px&quot;&gt;Millennium Schema Artifact Validation&lt;/span&gt;&lt;/li&gt;&lt;li&gt;&lt;span style=&quot;font-size: 10px&quot;&gt;Purge Previous Runs&lt;/span&gt;&lt;/li&gt;&lt;li&gt;&lt;span style=&quot;font-size: 10px&quot;&gt;Check Crawler DB Objects&lt;/span&gt;&lt;/li&gt;&lt;li&gt;&lt;span style=&quot;font-size: 10px&quot;&gt;Crawler Schema Artifact Valication&lt;/span&gt;&lt;/li&gt;&lt;li&gt;&lt;span style=&quot;font-size: 10px&quot;&gt;Clear Proc Staging Data&lt;/span&gt;&lt;/li&gt;&lt;li&gt;&lt;span style=&quot;font-size: 10px&quot;&gt;Persist SD Proc Staging Data&lt;/span&gt;&lt;/li&gt;&lt;/ul&gt;&lt;/div&gt;" style="text;html=1;strokeColor=none;fillColor=none;align=left;verticalAlign=middle;whiteSpace=wrap;rounded=0;" vertex="1" parent="1">
          <mxGeometry x="540" y="100" width="160" height="220" as="geometry" />
        </mxCell>
        <mxCell id="Lzy6enKNi-50VnEe-bel-17" value="&lt;div style=&quot;font-size: 10px&quot;&gt;&lt;ul&gt;&lt;li&gt;Execute by Priority&lt;/li&gt;&lt;/ul&gt;&lt;/div&gt;" style="text;html=1;strokeColor=none;fillColor=none;align=left;verticalAlign=middle;whiteSpace=wrap;rounded=0;" vertex="1" parent="1">
          <mxGeometry x="720" y="100" width="160" height="20" as="geometry" />
        </mxCell>
        <mxCell id="Lzy6enKNi-50VnEe-bel-18" value="&lt;div style=&quot;font-size: 10px&quot;&gt;&lt;ul&gt;&lt;li&gt;Update CCeradm Metadata&lt;/li&gt;&lt;li&gt;Add Crawler Metadata To DM Info&lt;/li&gt;&lt;/ul&gt;&lt;/div&gt;" style="text;html=1;strokeColor=none;fillColor=none;align=left;verticalAlign=middle;whiteSpace=wrap;rounded=0;" vertex="1" parent="1">
          <mxGeometry x="900" y="100" width="160" height="40" as="geometry" />
        </mxCell>
      </root>
    </mxGraphModel>
  </diagram>
</mxfile>
